<svg width="93" height="20" viewBox="0 0 93 20" fill="none" xmlns="http://www.w3.org/2000/svg">
<g clip-path="url(#clip0_10341_5039)">
<path d="M0 14.1159H3.76967C3.8067 15.012 4.10294 15.7045 4.6584 16.1859C5.13979 16.6339 5.82114 16.8561 6.70987 16.8561C7.78004 16.8561 8.5947 16.5599 9.15016 15.96C9.70561 15.2897 9.98334 14.3751 9.98334 13.216C9.98334 12.057 9.6871 11.2386 9.09832 10.6425C8.54286 10.0092 7.74671 9.69077 6.71357 9.69077C6.15812 9.69077 5.65821 9.80187 5.21755 10.0277C4.73616 10.2907 4.38437 10.6239 4.1659 11.035L0.618404 10.8683L1.88484 0.399902H11.1979C11.7163 0.436933 12.1681 0.644302 12.5569 1.0146C12.9458 1.38861 13.1383 1.85519 13.1383 2.41434V3.75854H4.6584L4.15849 7.5097C4.49176 7.20975 4.96945 6.96906 5.59896 6.7802C6.19145 6.59505 6.81726 6.49877 7.4838 6.49877C9.4427 6.49877 11.0128 7.09496 12.1977 8.29103C13.416 9.52414 14.027 11.109 14.027 13.0494C14.027 15.1786 13.3605 16.8746 12.0311 18.1448C10.7388 19.3779 8.9613 19.9926 6.70987 19.9926C4.60285 19.9926 2.97723 19.489 1.82929 18.4817C0.681355 17.4375 0.0740604 15.9822 0 14.1159Z" fill="#00CEE6"/>
<path fill-rule="evenodd" clip-rule="evenodd" d="M15.2305 19.5963V2.45878C15.2305 1.90333 15.4268 1.42934 15.8156 1.04052C16.2044 0.651708 16.6784 0.436933 17.2339 0.399902H21.0702L24.851 15.0342L28.6318 0.399902H34.4714V19.5963H30.8017V4.12884L26.9098 19.5963H22.8513L18.9039 4.12884V19.5963H15.2342H15.2305Z" fill="white"/>
<path fill-rule="evenodd" clip-rule="evenodd" d="M36.0711 6.79871H38.1337C38.6669 6.79871 39.1261 6.95794 39.5075 7.2801C39.8889 7.60226 40.0778 7.98737 40.0778 8.43544V19.5963H36.0711V6.79871Z" fill="white"/>
<path fill-rule="evenodd" clip-rule="evenodd" d="M54.1085 19.5964H52.1718C51.6201 19.5964 51.1683 19.4186 50.8165 19.0668C50.4647 18.715 50.2907 18.2559 50.2907 17.6967V10.0981C50.2907 9.20569 50.0241 8.55396 49.4871 8.14292C48.9539 7.73189 48.354 7.52822 47.6912 7.52822C47.0283 7.52822 46.4358 7.73189 45.9211 8.14292C45.4064 8.55396 45.1472 9.20569 45.1472 10.0981V19.5964H41.2775V10.8795C41.2775 8.34659 41.9293 6.65431 43.2401 5.79521C44.5473 4.93981 45.9952 4.47323 47.5801 4.39917C49.202 4.39917 50.6943 4.82872 52.057 5.68412C53.4197 6.54322 54.1011 8.27253 54.1011 10.8795V19.5964H54.1085Z" fill="white"/>
<path fill-rule="evenodd" clip-rule="evenodd" d="M54.9084 14.7602H58.7188C58.7558 15.5119 59.0335 16.0748 59.5593 16.4488C60.1185 16.8228 60.8665 17.0116 61.7997 17.0116C62.4736 17.0116 63.0513 16.882 63.5364 16.6191C63.9845 16.3562 64.2103 16.0007 64.2103 15.549C64.2103 14.875 63.4253 14.3677 61.8552 14.027C61.1813 13.9159 60.6777 13.8011 60.3407 13.69C58.3596 13.2012 57.0339 12.6199 56.3599 11.9459C55.6119 11.272 55.2379 10.3684 55.2379 9.24272C55.2379 7.81706 55.7786 6.63579 56.8635 5.69523C57.9856 4.83242 59.4408 4.39917 61.2368 4.39917C63.1772 4.39917 64.7288 4.83242 65.8878 5.69523C66.9728 6.63579 67.5505 7.85409 67.6245 9.35381H65.2139C64.5029 9.35381 63.9622 9.03535 63.5882 8.39473C63.4401 8.24661 63.2883 8.09478 63.1402 7.94296C62.6921 7.60598 62.0737 7.43564 61.2924 7.43564C60.511 7.43564 59.9852 7.54674 59.6112 7.77262C59.2742 7.9985 59.1076 8.33548 59.1076 8.78725C59.1076 9.38714 60.0778 9.89445 62.0219 10.3055C62.2477 10.3795 62.444 10.4388 62.6106 10.4758C62.7773 10.5129 62.9365 10.5314 63.0883 10.5314C64.9954 11.0202 66.3211 11.583 67.0691 12.2199C67.7763 12.8939 68.1355 13.7974 68.1355 14.9231C68.1355 16.5747 67.5356 17.8522 66.3433 18.7521C65.2213 19.5778 63.5401 19.9926 61.2998 19.9926C59.0594 19.9926 57.5819 19.563 56.5377 18.6965C55.4527 17.8337 54.9121 16.5747 54.9121 14.9231V14.7528L54.9084 14.7602Z" fill="white"/>
<path d="M40.5888 3.22531C40.9813 2.99202 40.9813 2.6069 40.5888 2.37361L36.7821 0.0999582C36.3896 -0.133332 36.0711 0.059225 36.0711 0.525805V5.07311C36.0711 5.53969 36.3896 5.73225 36.7821 5.49896L40.5888 3.22531C40.9813 2.99202 40.9813 2.6069 40.5888 2.37361L36.7821 0.0999582C36.3896 -0.133332 36.0711 0.059225 36.0711 0.525805V5.07311C36.0711 5.53969 36.3896 5.73225 36.7821 5.49896L40.5888 3.22531Z" fill="#FFBB38"/>
<path d="M73.0087 16.6969V19.6852H69.7908V17.8078C69.7908 17.0672 70.1907 16.6969 71.0165 16.6969H73.0087Z" fill="white"/>
<path d="M78.9002 8.55396H75.1158C75.5712 5.76558 77.5338 4.39917 81.0073 4.39917C85.162 4.39917 87.2691 5.76558 87.3542 8.55396V13.6789C87.3542 17.8337 84.851 19.6852 80.7777 19.9704C77.1635 20.2555 74.6566 18.5743 74.6566 15.2453C74.7418 11.6312 77.3598 10.661 81.1739 10.2907C82.7958 10.0907 83.6216 9.60561 83.6216 8.78354C83.5364 7.92815 82.7403 7.5023 81.1739 7.5023C79.8371 7.5023 79.0965 7.84298 78.8965 8.55396H78.9002ZM83.6808 13.5086V12.1126C82.7995 12.4829 81.7738 12.7939 80.6629 13.0235C79.1558 13.3086 78.3855 14.0196 78.3855 15.1305C78.4707 16.3266 79.0965 16.8969 80.2926 16.8969C82.3996 16.8969 83.6808 15.6452 83.6808 13.5086Z" fill="white"/>
<path d="M84.7621 7.86521C85.9878 7.86521 87.3542 9.85744 87.3542 11.0794V19.6852H83.94V16.5155L84.9731 11.3905L84.7658 7.86151L84.7621 7.86521Z" fill="white"/>
<path d="M91.1424 0.32959C92.394 0.32959 92.9939 0.9554 92.9643 2.1811V3.292H89.1798V0.32959H91.1424ZM91.1424 4.62879C92.3681 4.62879 92.9643 5.22498 92.9643 6.45068V19.689H89.1798V4.62879H91.1424Z" fill="white"/>
</g>
<defs>
<clipPath id="clip0_10341_5039">
<rect width="92.9643" height="20" fill="white"/>
</clipPath>
</defs>
</svg>
